<svg xmlns="http://www.w3.org/2000/svg" height="800" width="1200" xml:space="preserve" y="0" x="0" id="Layer_1" version="1.1" viewBox="-4.965 -8.275 43.03 49.65"><style id="style8361" type="text/css">.st0{fill:#0078d6}</style><path id="path8365" d="M19.9 20.1c.9.3 1.8.8 2.6 1.4.8.6 1.4 1.3 2 2.1.5.8 1 1.7 1.3 2.6.3 1 .4 1.9.4 2.9h-1.3c0-1.1-.2-2.2-.6-3.2-.8-2-2.4-3.5-4.3-4.3-1.7-.7-3.6-.8-5.4-.3-.7.2-1.4.5-2 .8-1.2.7-2.2 1.7-2.9 2.9-.7 1.3-1.1 2.7-1.1 4.2H7.3c0-2 .6-3.9 1.7-5.5.6-.8 1.2-1.5 2-2.1.8-.6 1.7-1.1 2.6-1.4-1.1-.6-2-1.4-2.6-2.5-.3-.5-.5-1.1-.7-1.7-.4-1.5-.3-3.1.3-4.5.7-1.6 2-2.9 3.6-3.6 1.7-.7 3.6-.7 5.3 0 1.6.7 2.9 2 3.6 3.6.6 1.4.7 3 .3 4.5-.2.6-.4 1.1-.7 1.7-.3.5-.7 1-1.1 1.4-.7.3-1.2.7-1.7 1zm-8.8-6c0 .7.1 1.5.4 2.1.6 1.3 1.6 2.3 2.9 2.9 1.4.6 2.9.6 4.2 0 1.3-.6 2.3-1.6 2.9-2.9.6-1.4.6-2.9 0-4.2-.6-1.3-1.6-2.3-2.9-2.9-1.4-.6-2.9-.6-4.2 0-1.3.6-2.3 1.6-2.9 2.9-.3.6-.4 1.4-.4 2.1z" class="st0"/><path id="path8367" d="M26.6 29.6h-2.3v-.5c0-1-.2-2.1-.6-3.1-.7-1.8-2.2-3.3-4.1-4.1-1.6-.7-3.4-.8-5.1-.3-.6.2-1.3.4-1.9.8-1.1.7-2.1 1.6-2.8 2.8-.7 1.2-1 2.6-1 3.9v.5H6.5v-.5c0-2.1.6-4.1 1.8-5.8.6-.8 1.3-1.6 2.1-2.2.6-.4 1.2-.8 1.9-1.1-.3-.2-.6-.4-.8-.7-.5-.5-.9-1-1.2-1.5-.3-.5-.6-1.1-.8-1.7-.4-1.6-.3-3.3.3-4.8 1.6-3.7 5.8-5.4 9.6-3.9 1.7.7 3.1 2.1 3.9 3.9.6 1.5.7 3.2.3 4.8-.2.6-.4 1.2-.8 1.8-.3.6-.7 1.1-1.2 1.5-.2.2-.5.5-.8.7.7.3 1.3.6 1.9 1.1.8.6 1.5 1.4 2.1 2.2.6.8 1 1.8 1.3 2.7.3 1 .5 2 .5 3.1zm-1.4-1h.4c0-.8-.2-1.6-.4-2.3-.3-.9-.7-1.7-1.2-2.5s-1.2-1.4-1.9-2c-.7-.6-1.6-1-2.5-1.3l-1-.4.9-.5c.5-.3 1-.6 1.4-1 .4-.4.7-.8 1-1.3.3-.5.5-1 .7-1.5.4-1.4.3-2.8-.3-4.2-1.4-3.2-5.1-4.7-8.3-3.4-1.5.6-2.7 1.9-3.4 3.4-.3.8-.5 1.6-.5 2.5 0 .6.1 1.1.2 1.7.1.5.3 1.1.6 1.6.6 1 1.4 1.8 2.4 2.3l.9.5-1 .4c-.9.3-1.7.8-2.5 1.4-.7.6-1.4 1.2-1.9 2-1 1.4-1.5 3.1-1.6 4.8h.4c.1-1.4.5-2.8 1.2-4 .7-1.3 1.8-2.3 3.1-3.1.7-.4 1.4-.7 2.1-.9 1.9-.5 3.9-.4 5.7.4 2.1.8 3.7 2.5 4.6 4.6.7.8.9 1.8.9 2.8zM16.6 20c-.8 0-1.6-.2-2.3-.5-1.4-.6-2.6-1.7-3.2-3.1-.6-1.5-.6-3.1 0-4.6.6-1.4 1.7-2.5 3.1-3.2 1.5-.6 3.1-.6 4.6 0 1.4.6 2.6 1.7 3.2 3.2.6 1.5.6 3.1 0 4.6-.6 1.4-1.7 2.5-3.1 3.1-.7.4-1.5.5-2.3.5zm0-10.9c-.7 0-1.3.1-1.9.4-1.2.5-2.1 1.5-2.7 2.7-.5 1.2-.5 2.6 0 3.9.5 1.2 1.5 2.1 2.7 2.7 1.2.5 2.6.5 3.9 0 1.2-.5 2.1-1.5 2.7-2.7.5-1.2.5-2.6 0-3.9-.5-1.2-1.5-2.1-2.7-2.7-.7-.3-1.3-.4-2-.4z" class="st0"/><path id="path8369" d="M16.6 33.1C7.5 33.1.1 25.7 0 16.6 0 7.5 7.4.1 16.5 0 25.6 0 33 7.4 33.1 16.5c0 9.2-7.4 16.6-16.5 16.6zm0-31.2C8.5 1.9 1.9 8.5 1.9 16.6s6.6 14.7 14.7 14.7 14.7-6.6 14.7-14.7c-.1-8.2-6.6-14.7-14.7-14.7z" class="st0"/></svg>